<svg xmlns="http://www.w3.org/2000/svg" width="95.197" height="102" viewBox="0 0 95.197 102">
  <g id="astronaut_icon" transform="translate(-88.662 0.012)">
    <path id="Pfad_322" data-name="Pfad 322" d="M105.012,88.388h-4.45a5.106,5.106,0,0,0-5.1,5.1v3.4a5.105,5.105,0,0,0,5.1,5.1h71.4a5.105,5.105,0,0,0,5.1-5.1v-3.4a5.1,5.1,0,0,0-3.161-4.712,51.285,51.285,0,0,0,7.335-8.26v0a1.7,1.7,0,0,0,.248-.514c0-.018,0-.036,0-.053a1.647,1.647,0,0,0,.028-.36,2.232,2.232,0,0,0-.207-.909,1.7,1.7,0,0,0-.185-.219,1.615,1.615,0,0,0-.257-.274c-.014-.011-.021-.027-.035-.037a5.016,5.016,0,0,1-.518-.249l-4.664-1.338a43.533,43.533,0,0,0,8.21-25.57A44.481,44.481,0,0,0,160.212,11.9l1.716-5.13a1.6,1.6,0,0,0,.03-.24A1.669,1.669,0,0,0,162,6.191a1.631,1.631,0,0,0-.051-.321,1.7,1.7,0,0,0-.085-.307,1.67,1.67,0,0,0-.169-.28,1.632,1.632,0,0,0-.194-.253,1.655,1.655,0,0,0-.271-.2,1.633,1.633,0,0,0-.2-.145A50.538,50.538,0,0,0,154.827,2.3c-.021-.008-.035-.025-.055-.032s-.054,0-.081-.01a50.983,50.983,0,0,0-49.679,86.126Zm68.648,8.5a1.7,1.7,0,0,1-1.7,1.7h-71.4a1.7,1.7,0,0,1-1.7-1.7v-3.4a1.7,1.7,0,0,1,1.7-1.7h71.4a1.7,1.7,0,0,1,1.7,1.7ZM158.208,7.171,141.775,56.3a12.225,12.225,0,0,0-3.239-.118L155.3,6.036c.979.343,1.947.725,2.906,1.134Zm-16.783,52.5a8.155,8.155,0,0,1,.915.256l.011.006.028,0a8.437,8.437,0,0,1,5.586,6.2,8.586,8.586,0,0,1-1.7,7.21,8.493,8.493,0,0,1-14.606-2.524,1.7,1.7,0,0,0-1.6-1.132h-5.693a1.7,1.7,0,1,1,0-3.4h5.693a1.7,1.7,0,0,0,1.6-1.132,8.5,8.5,0,0,1,9.77-5.491ZM148.9,75.488a11.788,11.788,0,0,0,1.592-2.61l21.755,6.242c.025.009.05.014.075.021l4.657,1.336c-.87,1.1-1.774,2.173-2.733,3.19l-26-7.457c.225-.235.45-.467.657-.722Zm31.559-24.5a40.2,40.2,0,0,1-8.294,24.57l-20.727-5.947a12.224,12.224,0,0,0-.145-4.174A11.865,11.865,0,0,0,145,57.36L159.12,15.166a41.074,41.074,0,0,1,21.341,35.825Zm-40.8-47.6a47.35,47.35,0,0,1,12.394,1.636L134.6,57.242a11.777,11.777,0,0,0-5.681,5.649h-4.555a5.1,5.1,0,0,0,0,10.2h4.558a11.9,11.9,0,0,0,15.837,5.658l26.705,7.659c-.767.69-1.565,1.345-2.376,1.983H110.24a47.585,47.585,0,0,1,29.419-85Z" transform="translate(0 0)"/>
    <path id="Pfad_323" data-name="Pfad 323" d="M345.77,355.53a5.1,5.1,0,1,0-5.1-5.1A5.1,5.1,0,0,0,345.77,355.53Zm0-6.8a1.7,1.7,0,1,1-1.7,1.7A1.7,1.7,0,0,1,345.77,348.73Z" transform="translate(-206.108 -282.441)"/>
    <path id="Pfad_324" data-name="Pfad 324" d="M474.684,157.092a6.9,6.9,0,0,0,3.121.78,5.675,5.675,0,0,0,2.514-.571,6.276,6.276,0,0,0,3.282-4.587,10.179,10.179,0,0,0-5.138-10.464,5.952,5.952,0,0,0-8.916,4.378,10.18,10.18,0,0,0,5.138,10.464Zm-1.8-9.831a2.963,2.963,0,0,1,1.437-2.168,2.284,2.284,0,0,1,1.016-.228,3.6,3.6,0,0,1,1.579.415,6.79,6.79,0,0,1,3.339,6.8,2.579,2.579,0,0,1-4.033,1.981,6.789,6.789,0,0,1-3.338-6.8Z" transform="translate(-311.414 -115.681)"/>
    <path id="Pfad_325" data-name="Pfad 325" d="M521.618,252.513a5.584,5.584,0,0,0-3.43,7.048,5.836,5.836,0,0,0,5.324,4.608,4.39,4.39,0,0,0,1.118-.143,5.581,5.581,0,0,0,3.428-7.047,6.515,6.515,0,0,0-2.354-3.589,4.813,4.813,0,0,0-4.085-.877Zm2.055,3.6a3.141,3.141,0,0,1,1.094,1.721c.344,1.314-.122,2.668-1,2.9s-1.947-.723-2.291-2.036.123-2.669,1-2.9a1.007,1.007,0,0,1,.269-.034,1.626,1.626,0,0,1,.926.349Z" transform="translate(-351.053 -206.419)"/>
  </g>
</svg>
