<svg xmlns="http://www.w3.org/2000/svg" width="100.002" height="88.205" viewBox="0 0 100.002 88.205">
  <g id="band_room_icon" transform="translate(-204.402 719.613)">
    <path id="Pfad_30" data-name="Pfad 30" d="M215.34,95.287a15.263,15.263,0,0,0-11.9-3.8l-41.52,4.557a15.328,15.328,0,0,0-13.67,15.19v39.621a16.074,16.074,0,0,0-11.392-4.683,16.711,16.711,0,1,0,16.455,16.962v-51.9a10.377,10.377,0,0,1,9.114-10.253l41.52-4.557a10.23,10.23,0,0,1,11.393,10.127v36.583a16.574,16.574,0,1,0-11.519,28.481,16.265,16.265,0,0,0,16.582-16.33V106.679a15.633,15.633,0,0,0-5.064-11.392Zm-78.482,79.242A11.52,11.52,0,1,1,148.25,163.01,11.453,11.453,0,0,1,136.858,174.529Zm66.963-7.722a11.519,11.519,0,1,1,11.519-11.519A11.562,11.562,0,0,1,203.821,166.807Z" transform="translate(84 -811)"/>
  </g>
</svg>
