<svg xmlns="http://www.w3.org/2000/svg" width="100.723" height="100" viewBox="0 0 100.723 100">
  <g id="band_room_icon" transform="translate(-72.914 -4.887)">
    <path id="Pfad_30" data-name="Pfad 30" d="M127.457,240.921l-.052.056a13.942,13.942,0,0,1-5.572,3.518h0a11.754,11.754,0,0,0-7.842,10.326,14.433,14.433,0,0,1-3.889,9.041c-6.346,6.537-18.318,6.639-26.786-2.084-5.074-5.228-7.207-10.544-7.216-15.4a17.663,17.663,0,0,1,5.193-12.328c2.039-2.1,5.669-3.632,9.851-3.976,4.683-.386,7.467-3.486,8.942-8.082a.05.05,0,0,0,0-.009,14.456,14.456,0,0,1,3.419-5.766,14.025,14.025,0,0,1,7.7-4.057,15.381,15.381,0,0,0-2.88,7.066,1.59,1.59,0,0,0,3.161.35,13.349,13.349,0,0,1,3.061-6.6c.013-.017.026-.035.039-.054a2.629,2.629,0,0,0,.175-2.745,2.561,2.561,0,0,0-2.422-1.367l-.033,0A17.271,17.271,0,0,0,101.219,214a17.611,17.611,0,0,0-4.167,7.019c-1.044,3.251-2.86,5.609-6.174,5.882-5.061.415-9.4,2.39-11.871,4.931a20.821,20.821,0,0,0-6.092,14.548c.009,5.542,2.329,11.655,8.113,17.615,9.9,10.2,23.929,9.729,31.35,2.083a17.578,17.578,0,0,0,4.777-11.005.086.086,0,0,1,0-.013,8.566,8.566,0,0,1,5.7-7.552,17.113,17.113,0,0,0,6.834-4.314,5.913,5.913,0,0,0,1.7-3.8,2.742,2.742,0,0,0-.452-1.668,1.828,1.828,0,0,0-2.322-.559,9.251,9.251,0,0,1-10.666-2.248,1.591,1.591,0,0,0-2.282,2.216,12.736,12.736,0,0,0,11.794,3.785Z" transform="translate(0 -166.854)" fill-rule="evenodd"/>
    <path id="Pfad_31" data-name="Pfad 31" d="M297.218,103.905a1.59,1.59,0,0,0-.026-2.222l-5.4-5.4a1.59,1.59,0,0,0-2.222-.026s-33.913,32.38-42.195,40.266a4.184,4.184,0,0,0-.073,5.987l3.666,3.666a4.184,4.184,0,0,0,5.987-.073c7.887-8.281,40.266-42.195,40.266-42.195Zm-3.374-1.073c-5.672,5.942-32.166,33.691-39.2,41.073a1,1,0,0,1-1.436.017l-3.665-3.665a1,1,0,0,1,.017-1.436c7.382-7.03,35.132-33.524,41.072-39.2Z" transform="translate(-141.686 -74.4)" fill-rule="evenodd"/>
    <path id="Pfad_32" data-name="Pfad 32" d="M491.636,31.83a8.107,8.107,0,0,1,3.481-2.877l11.528-4.918a3.159,3.159,0,0,1,3.862.723l0,.006a1.3,1.3,0,0,1,.041,1.294,2.169,2.169,0,0,1-1.361,1.216l-1.441.417a5.955,5.955,0,0,0-3.621,3.045l-2.081,4.192a7.7,7.7,0,0,1-6.937,4.378,1.59,1.59,0,1,0-.136,3.178,10.945,10.945,0,0,0,9.922-6.142l2.081-4.192a2.727,2.727,0,0,1,1.654-1.4l1.442-.415a5.4,5.4,0,0,0,3.4-3.013,4.461,4.461,0,0,0-.415-4.459l-.005,0a6.29,6.29,0,0,0-7.657-1.744L493.87,26.027a11.312,11.312,0,0,0-4.859,4.008,1.591,1.591,0,1,0,2.626,1.8Z" transform="translate(-340.245 -12.785)" fill-rule="evenodd"/>
    <path id="Pfad_33" data-name="Pfad 33" d="M149.546,423.022l6.539,6.54a1.59,1.59,0,1,0,2.25-2.248l-6.54-6.54a1.59,1.59,0,1,0-2.248,2.248Z" transform="translate(-62.323 -339.919)" fill-rule="evenodd"/>
    <path id="Pfad_34" data-name="Pfad 34" d="M216.066,356.512l6.539,6.54a1.59,1.59,0,1,0,2.25-2.248l-6.54-6.54a1.59,1.59,0,0,0-2.248,2.248Z" transform="translate(-116.753 -285.497)" fill-rule="evenodd"/>
    <path id="Pfad_35" data-name="Pfad 35" d="M190.995,381.57l3.529,3.529a1.59,1.59,0,1,0,2.248-2.248l-3.529-3.529a1.59,1.59,0,0,0-2.248,2.248Z" transform="translate(-96.238 -306)" fill-rule="evenodd"/>
    <path id="Pfad_36" data-name="Pfad 36" d="M202.575,408.829l3.154,3.154a1.59,1.59,0,0,0,2.248-2.25l-3.154-3.153a1.59,1.59,0,0,0-2.248,2.248Z" transform="translate(-105.714 -328.305)" fill-rule="evenodd"/>
    <path id="Pfad_37" data-name="Pfad 37" d="M238.759,468.3l1.01-1.01a1.591,1.591,0,0,0-2.25-2.25l-1.01,1.01a1.59,1.59,0,0,0,2.248,2.248Z" transform="translate(-133.481 -376.141)" fill-rule="evenodd"/>
    <path id="Pfad_38" data-name="Pfad 38" d="M252.56,429.814l1.01-1.01a1.59,1.59,0,1,0-2.248-2.248l-1.01,1.01a1.59,1.59,0,0,0,2.248,2.25Z" transform="translate(-144.774 -344.65)" fill-rule="evenodd"/>
    <path id="Pfad_39" data-name="Pfad 39" d="M589.339,7.868,588.748,6a1.591,1.591,0,0,0-3.033.961l.593,1.87a1.59,1.59,0,0,0,3.032-.961Z" transform="translate(-419.539)" fill-rule="evenodd"/>
    <path id="Pfad_40" data-name="Pfad 40" d="M497.361,48.255l-.591-1.87a1.59,1.59,0,0,0-3.032.961l.591,1.87a1.59,1.59,0,0,0,3.032-.961Z" transform="translate(-344.278 -33.047)" fill-rule="evenodd"/>
    <path id="Pfad_41" data-name="Pfad 41" d="M527.445,31.716l-.593-1.87a1.59,1.59,0,0,0-3.032.961l.593,1.87a1.59,1.59,0,0,0,3.032-.961Z" transform="translate(-368.893 -19.514)" fill-rule="evenodd"/>
    <path id="Pfad_42" data-name="Pfad 42" d="M556.335,18.211l-.593-1.87a1.59,1.59,0,1,0-3.032.96l.593,1.87a1.59,1.59,0,1,0,3.032-.96Z" transform="translate(-392.532 -8.463)" fill-rule="evenodd"/>
    <path id="Pfad_43" data-name="Pfad 43" d="M306.421,318.2l-2.647-2.647a1.59,1.59,0,0,0-2.248,2.25l2.646,2.646a1.59,1.59,0,1,0,2.25-2.248Z" transform="translate(-186.68 -253.818)" fill-rule="evenodd"/>
    <path id="Pfad_44" data-name="Pfad 44" d="M406.9,215.885l-1.73-1.73a1.59,1.59,0,0,0-2.248,2.248l1.73,1.73a1.59,1.59,0,1,0,2.248-2.248Z" transform="translate(-269.648 -170.853)" fill-rule="evenodd"/>
    <path id="Pfad_45" data-name="Pfad 45" d="M340.221,284.4l-2.647-2.647A1.59,1.59,0,0,0,335.325,284l2.647,2.647a1.59,1.59,0,0,0,2.248-2.248Z" transform="translate(-214.337 -226.161)" fill-rule="evenodd"/>
    <path id="Pfad_46" data-name="Pfad 46" d="M440.69,182.085l-1.73-1.73a1.59,1.59,0,0,0-2.248,2.248l1.73,1.73a1.59,1.59,0,1,0,2.248-2.248Z" transform="translate(-297.296 -143.196)" fill-rule="evenodd"/>
    <path id="Pfad_47" data-name="Pfad 47" d="M373.1,249.685l-1.73-1.73a1.59,1.59,0,0,0-2.248,2.248l1.73,1.73a1.59,1.59,0,0,0,2.248-2.248Z" transform="translate(-241.991 -198.51)" fill-rule="evenodd"/>
    <path id="Pfad_48" data-name="Pfad 48" d="M474.49,148.285l-1.73-1.73a1.59,1.59,0,0,0-2.248,2.248l1.73,1.73a1.59,1.59,0,0,0,2.248-2.248Z" transform="translate(-324.953 -115.539)" fill-rule="evenodd"/>
  </g>
</svg>
