<svg xmlns="http://www.w3.org/2000/svg" width="100" height="100" viewBox="0 0 100 100">
  <g id="blog_icon" transform="translate(-140 -70)">
    <path id="Pfad_65" data-name="Pfad 65" d="M237.917,70h-75a2.083,2.083,0,0,0-2.083,2.083V86.667h-18.75A2.083,2.083,0,0,0,140,88.75V157.5A12.5,12.5,0,0,0,152.5,170h75A12.5,12.5,0,0,0,240,157.5V72.083A2.083,2.083,0,0,0,237.917,70Zm-93.75,87.5V90.833H215V157.5a12.5,12.5,0,0,0,3.209,8.333H152.5a8.332,8.332,0,0,1-8.333-8.333Zm91.667,0a8.333,8.333,0,1,1-16.667,0V88.75a2.083,2.083,0,0,0-2.083-2.083H165v-12.5h70.833Z"/>
    <path id="Pfad_66" data-name="Pfad 66" d="M194.583,213.333H211.25a2.083,2.083,0,0,0,2.083-2.083V194.583a2.083,2.083,0,0,0-2.083-2.083H194.583a2.083,2.083,0,0,0-2.083,2.083V211.25a2.083,2.083,0,0,0,2.083,2.083Zm2.083-16.667h12.5v12.5h-12.5Z" transform="translate(-40 -93.333)"/>
    <path id="Pfad_67" data-name="Pfad 67" d="M337.917,192.5H317.083a2.083,2.083,0,1,0,0,4.167h20.833a2.083,2.083,0,1,0,0-4.167Z" transform="translate(-133.333 -93.333)"/>
    <path id="Pfad_68" data-name="Pfad 68" d="M194.583,319.167h20.833a2.083,2.083,0,1,0,0-4.167H194.583a2.083,2.083,0,1,0,0,4.167Z" transform="translate(-40 -186.667)"/>
    <path id="Pfad_69" data-name="Pfad 69" d="M194.583,371.667h25a2.083,2.083,0,1,0,0-4.167h-25a2.083,2.083,0,1,0,0,4.167Z" transform="translate(-40 -226.667)"/>
    <path id="Pfad_70" data-name="Pfad 70" d="M207.083,420h-12.5a2.083,2.083,0,1,0,0,4.167h12.5a2.083,2.083,0,1,0,0-4.167Z" transform="translate(-40 -266.667)"/>
    <path id="Pfad_71" data-name="Pfad 71" d="M351.25,315H334.583a2.083,2.083,0,0,0,0,4.167H351.25a2.083,2.083,0,0,0,0-4.167Z" transform="translate(-146.667 -186.667)"/>
    <path id="Pfad_72" data-name="Pfad 72" d="M364.583,367.5h-12.5a2.083,2.083,0,0,0,0,4.167h12.5a2.083,2.083,0,1,0,0-4.167Z" transform="translate(-160 -226.667)"/>
    <path id="Pfad_73" data-name="Pfad 73" d="M324.583,420h-25a2.083,2.083,0,1,0,0,4.167h25a2.083,2.083,0,1,0,0-4.167Z" transform="translate(-120 -266.667)"/>
  </g>
</svg>
