<svg xmlns="http://www.w3.org/2000/svg" width="104.076" height="100" viewBox="0 0 104.076 100">
  <g id="blog_icon" transform="translate(-232 75.119)">
    <path id="Pfad_86" data-name="Pfad 86" d="M202.075,135.568a2.319,2.319,0,0,1-2.313,2.313h-99.45a2.313,2.313,0,1,1,0-4.625h99.45A2.319,2.319,0,0,1,202.075,135.568ZM123.441,124a2.319,2.319,0,0,0,2.313,2.313h74.009a2.313,2.313,0,0,0,0-4.625H125.753A2.32,2.32,0,0,0,123.441,124ZM98,124V110.128a2.271,2.271,0,0,1,.682-1.63l67.071-67.071A12.126,12.126,0,1,1,182.9,58.576l-67.071,67.071a2.293,2.293,0,0,1-1.63.682H100.313A2.336,2.336,0,0,1,98,124Zm4.625-2.313h10.6L179.619,55.3a7.5,7.5,0,1,0-10.6-10.6l-66.389,66.389Z" transform="translate(134 -113)"/>
  </g>
</svg>
