<svg xmlns="http://www.w3.org/2000/svg" width="99.93" height="100" viewBox="0 0 99.93 100">
  <g id="conference_icon" transform="translate(-93.326 -22.973)">
    <path id="Pfad_122" data-name="Pfad 122" d="M489.455,44.754a13.466,13.466,0,0,0-2.088-1.546,11.355,11.355,0,1,0-14.1.039,14.334,14.334,0,0,0-6.6,12.079v1.783a4.547,4.547,0,0,0,4.542,4.543h18.169a4.549,4.549,0,0,0,4.543-4.543V54.838a13.655,13.655,0,0,0-4.463-10.085Zm-9.164-17.168a6.82,6.82,0,1,1-4.816,2A6.813,6.813,0,0,1,480.292,27.585Zm9.085,29.525H471.207V55.326a9.424,9.424,0,0,1,8.184-9.529c.3-.029.605-.043.907-.043h0a8.987,8.987,0,0,1,6.1,2.361,9.1,9.1,0,0,1,2.976,6.724Z" transform="translate(-300.662)"/>
    <path id="Pfad_123" data-name="Pfad 123" d="M97.876,61.657h18.169a4.547,4.547,0,0,0,4.542-4.543V54.844a13.657,13.657,0,0,0-4.462-10.085,13.465,13.465,0,0,0-2.087-1.547,11.355,11.355,0,1,0-14.106.04,14.337,14.337,0,0,0-6.6,12.079v1.783a4.549,4.549,0,0,0,4.543,4.543Zm9.084-34.066a6.822,6.822,0,1,1-4.815,2A6.813,6.813,0,0,1,106.96,27.591ZM97.876,55.33a9.422,9.422,0,0,1,8.184-9.529q.456-.043.907-.043a8.99,8.99,0,0,1,6.1,2.361,9.1,9.1,0,0,1,2.975,6.724v2.271H97.876Z" transform="translate(-0.005 -0.004)"/>
    <path id="Pfad_124" data-name="Pfad 124" d="M487.37,358.216a11.355,11.355,0,1,0-14.1.038,14.334,14.334,0,0,0-6.6,12.079v1.783a4.547,4.547,0,0,0,4.542,4.543h18.168a4.549,4.549,0,0,0,4.543-4.543v-2.271a13.655,13.655,0,0,0-4.463-10.085,13.393,13.393,0,0,0-2.09-1.545ZM480.3,342.593a6.82,6.82,0,1,1-4.816,2A6.813,6.813,0,0,1,480.3,342.593Zm9.085,29.525H471.211v-1.783A9.423,9.423,0,0,1,479.4,360.8c.3-.029.605-.043.907-.043h0a8.987,8.987,0,0,1,6.1,2.361,9.1,9.1,0,0,1,2.976,6.724Z" transform="translate(-300.665 -253.686)"/>
    <path id="Pfad_125" data-name="Pfad 125" d="M114.03,358.209a11.355,11.355,0,1,0-14.105.039,14.337,14.337,0,0,0-6.6,12.079v1.783a4.549,4.549,0,0,0,4.543,4.543h18.168a4.547,4.547,0,0,0,4.542-4.543V369.84a13.657,13.657,0,0,0-4.462-10.085,13.452,13.452,0,0,0-2.088-1.546Zm-7.076-15.623a6.822,6.822,0,1,1-4.815,2A6.813,6.813,0,0,1,106.954,342.587Zm9.085,29.525H97.87v-1.783a9.422,9.422,0,0,1,8.184-9.529q.456-.043.907-.043a8.99,8.99,0,0,1,6.1,2.361,9.1,9.1,0,0,1,2.975,6.724Z" transform="translate(0 -253.682)"/>
    <path id="Pfad_126" data-name="Pfad 126" d="M278.755,216.813A6.822,6.822,0,0,0,271.942,210H249.23a6.82,6.82,0,0,0-6.813,6.813v2.271h-2.271a6.822,6.822,0,0,0-6.813,6.813v13.627a6.823,6.823,0,0,0,6.813,6.813v4.542a2.271,2.271,0,0,0,3.634,1.817l8.479-6.359h10.6a6.822,6.822,0,0,0,6.813-6.813v-2.271h2.271a6.822,6.822,0,0,0,6.813-6.813Zm-13.627,22.712a2.273,2.273,0,0,1-2.271,2.271H251.5a2.276,2.276,0,0,0-1.363.455l-5.45,4.088v-2.271a2.272,2.272,0,0,0-2.271-2.271h-2.271a2.274,2.274,0,0,1-2.271-2.271V225.9a2.274,2.274,0,0,1,2.271-2.271h22.712a2.274,2.274,0,0,1,2.271,2.271Zm9.085-9.085h0a2.273,2.273,0,0,1-2.271,2.271H269.67V225.9a6.82,6.82,0,0,0-6.813-6.813h-15.9v-2.271a2.274,2.274,0,0,1,2.271-2.271h22.712a2.273,2.273,0,0,1,2.271,2.271Z" transform="translate(-112.751 -150.619)"/>
    <path id="Pfad_127" data-name="Pfad 127" d="M295.9,315H282.273a2.271,2.271,0,1,0,0,4.542H295.9a2.271,2.271,0,0,0,0-4.542Z" transform="translate(-150.336 -235.179)"/>
  </g>
</svg>
