<svg xmlns="http://www.w3.org/2000/svg" width="100" height="90" viewBox="0 0 100 90">
  <g id="conference_icon" transform="translate(-87.5 -43.75)">
    <path id="Pfad_105" data-name="Pfad 105" d="M182.5,43.75h-90a5.007,5.007,0,0,0-5,5v60a5.007,5.007,0,0,0,5,5h36.366l-2.778,16.667H117.5v3.333h40v-3.333h-8.588l-2.778-16.667H182.5a5.007,5.007,0,0,0,5-5v-60a5.007,5.007,0,0,0-5-5Zm1.667,5V72.083h-10V70.417A6.674,6.674,0,0,0,167.5,63.75H155.833a6.674,6.674,0,0,0-6.667,6.667v1.667h-10v-25H182.5A1.668,1.668,0,0,1,184.167,48.75Zm-13.333,51.667H152.5V98.75a3.338,3.338,0,0,1,3.333-3.333H167.5a3.338,3.338,0,0,1,3.333,3.333ZM167.5,92.083H155.833a6.674,6.674,0,0,0-6.667,6.667v1.667h-10v-25h45v25h-10V98.75a6.674,6.674,0,0,0-6.667-6.667Zm-45,8.333H104.167V98.75a3.338,3.338,0,0,1,3.333-3.333h11.667A3.338,3.338,0,0,1,122.5,98.75Zm-3.333-8.333H107.5a6.674,6.674,0,0,0-6.667,6.667v1.667h-10v-25h45v25h-10V98.75a6.674,6.674,0,0,0-6.667-6.667Zm3.333-20H104.167V70.417a3.338,3.338,0,0,1,3.333-3.333h11.667a3.338,3.338,0,0,1,3.333,3.333Zm48.333,0H152.5V70.417a3.338,3.338,0,0,1,3.333-3.333H167.5a3.338,3.338,0,0,1,3.333,3.333Zm-78.333-25h43.333v25h-10V70.417a6.674,6.674,0,0,0-6.667-6.667H107.5a6.674,6.674,0,0,0-6.667,6.667v1.667h-10V48.75A1.668,1.668,0,0,1,92.5,47.083Zm53.032,83.333H129.467l2.778-16.667h10.51Zm36.968-20h-90a1.668,1.668,0,0,1-1.667-1.667v-5h93.333v5A1.668,1.668,0,0,1,182.5,110.417Z"/>
    <path id="Pfad_106" data-name="Pfad 106" d="M455.213,85.417a6.674,6.674,0,1,0-1.955,4.712,6.669,6.669,0,0,0,1.955-4.712Zm-6.667,3.333a3.338,3.338,0,1,1,2.356-.978,3.334,3.334,0,0,1-2.356.978Z" transform="translate(-286.879 -28.333)"/>
    <path id="Pfad_107" data-name="Pfad 107" d="M201.453,85.417a6.674,6.674,0,1,0-1.955,4.712,6.669,6.669,0,0,0,1.955-4.712Zm-6.667,3.333a3.338,3.338,0,1,1,2.356-.978,3.334,3.334,0,0,1-2.356.978Z" transform="translate(-81.454 -28.333)"/>
    <path id="Pfad_108" data-name="Pfad 108" d="M455.213,234.167a6.674,6.674,0,1,0-1.955,4.712A6.669,6.669,0,0,0,455.213,234.167Zm-6.667,3.333a3.338,3.338,0,1,1,2.356-.978,3.334,3.334,0,0,1-2.356.978Z" transform="translate(-286.879 -148.75)"/>
    <path id="Pfad_109" data-name="Pfad 109" d="M201.453,234.167a6.674,6.674,0,1,0-1.955,4.712A6.669,6.669,0,0,0,201.453,234.167Zm-6.667,3.333a3.338,3.338,0,1,1,2.356-.978,3.334,3.334,0,0,1-2.356.978Z" transform="translate(-81.454 -148.75)"/>
  </g>
</svg>
