<svg xmlns="http://www.w3.org/2000/svg" width="122.182" height="100" viewBox="0 0 122.182 100">
  <g id="crearte_user" transform="translate(-193.199 -139.555)">
    <path id="Pfad_136" data-name="Pfad 136" d="M274.783,228.434a38.841,38.841,0,0,1-.515,6.057,4.354,4.354,0,1,0,8.592,1.417,46.814,46.814,0,0,0,.644-7.474,45.069,45.069,0,0,0-30.073-42.4,25.777,25.777,0,1,0-30.716,0A45.151,45.151,0,0,0,193.2,228.305a43.351,43.351,0,0,0,.688,7.519,4.3,4.3,0,0,0,4.3,3.566h.729a4.3,4.3,0,0,0,3.524-4.984,34.357,34.357,0,0,1-.56-6.057,36.518,36.518,0,0,1,73.035,0Zm-36.732-80.125a17.184,17.184,0,1,1-12.152,5.033A17.191,17.191,0,0,1,238.052,148.309Z"/>
    <path id="Pfad_137" data-name="Pfad 137" d="M451.294,161.478a4.295,4.295,0,0,0-4.3-4.3H434.109V144.295a4.3,4.3,0,1,0-8.592,0v12.888H412.629a4.3,4.3,0,1,0,0,8.592h12.888v12.888a4.3,4.3,0,1,0,8.592,0V165.775H447a4.3,4.3,0,0,0,4.3-4.3Z" transform="translate(-135.912 -0.281)"/>
  </g>
</svg>
