<svg xmlns="http://www.w3.org/2000/svg" width="100" height="100" viewBox="0 0 100 100">
  <g id="dashboard_icon" transform="translate(-141.25 -71.246)">
    <path id="Pfad_177" data-name="Pfad 177" d="M174.222,71.246H151.991A10.758,10.758,0,0,0,141.25,81.987v22.231a10.741,10.741,0,0,0,10.741,10.741h22.231a10.74,10.74,0,0,0,10.741-10.741V81.987a10.741,10.741,0,0,0-10.741-10.741Zm6.549,32.972a6.548,6.548,0,0,1-6.549,6.549H151.991a6.548,6.548,0,0,1-6.549-6.549V81.987a6.548,6.548,0,0,1,6.549-6.549h22.231a6.548,6.548,0,0,1,6.549,6.549Z"/>
    <path id="Pfad_178" data-name="Pfad 178" d="M409.222,71.246H386.991A10.741,10.741,0,0,0,376.25,81.987v22.231a10.74,10.74,0,0,0,10.741,10.741h22.231a10.741,10.741,0,0,0,10.741-10.741V81.987a10.758,10.758,0,0,0-10.741-10.741Zm6.549,32.972a6.549,6.549,0,0,1-6.549,6.549H386.991a6.549,6.549,0,0,1-6.549-6.549V81.987a6.549,6.549,0,0,1,6.549-6.549h22.231a6.549,6.549,0,0,1,6.549,6.549Z" transform="translate(-178.714)"/>
    <path id="Pfad_179" data-name="Pfad 179" d="M174.222,306.25H151.991a10.741,10.741,0,0,0-10.741,10.741v22.231a10.759,10.759,0,0,0,10.741,10.741h22.231a10.741,10.741,0,0,0,10.741-10.741V316.991a10.74,10.74,0,0,0-10.741-10.741Zm6.549,32.972a6.548,6.548,0,0,1-6.549,6.549H151.991a6.548,6.548,0,0,1-6.549-6.549V316.991a6.548,6.548,0,0,1,6.549-6.549h22.231a6.548,6.548,0,0,1,6.549,6.549Z" transform="translate(0 -178.717)"/>
    <path id="Pfad_180" data-name="Pfad 180" d="M409.222,306.25H386.991a10.74,10.74,0,0,0-10.741,10.741v22.231a10.741,10.741,0,0,0,10.741,10.741h22.231a10.758,10.758,0,0,0,10.741-10.741V316.991a10.741,10.741,0,0,0-10.741-10.741Zm6.549,32.972a6.549,6.549,0,0,1-6.549,6.549H386.991a6.549,6.549,0,0,1-6.549-6.549V316.991a6.549,6.549,0,0,1,6.549-6.549h22.231a6.549,6.549,0,0,1,6.549,6.549Z" transform="translate(-178.714 -178.717)"/>
  </g>
</svg>
