<svg xmlns="http://www.w3.org/2000/svg" width="106.781" height="106.781" viewBox="0 0 106.781 106.781">
  <path id="dashboard_icon" d="M156.061,32.668a53.391,53.391,0,1,0,53.391,53.391,53.451,53.451,0,0,0-53.391-53.391Zm0,100.737a47.346,47.346,0,1,1,47.346-47.346A47.4,47.4,0,0,1,156.061,133.4Zm0-74.546a27.23,27.23,0,0,0-27.2,27.2,3.022,3.022,0,0,1-6.044,0,33.259,33.259,0,0,1,47.382-30.1,3.022,3.022,0,1,1-2.569,5.47,27.016,27.016,0,0,0-11.569-2.574ZM184.5,67.306a3.025,3.025,0,0,1,.186,4.271l-21.4,23.372a10.071,10.071,0,1,1-4.433-4.106l21.378-23.35a3.028,3.028,0,0,1,4.266-.186Z" transform="translate(-102.67 -32.668)"/>
</svg>
