<svg id="delete" xmlns="http://www.w3.org/2000/svg" width="95.416" height="98.002" viewBox="0 0 95.416 98.002">
  <path id="Pfad_399" data-name="Pfad 399" d="M239.88,230.832a3,3,0,0,0,3-3V182.762a3,3,0,0,0-6,0v45.072A3,3,0,0,0,239.88,230.832Z" transform="translate(-210.106 -149.163)"/>
  <path id="Pfad_400" data-name="Pfad 400" d="M336.76,230.832a3,3,0,0,0,3-3V182.762a3,3,0,0,0-6,0v45.072A3,3,0,0,0,336.76,230.832Z" transform="translate(-289.102 -149.163)"/>
  <path id="Pfad_401" data-name="Pfad 401" d="M433.618,230.832a3,3,0,0,0,3-3V182.762a3,3,0,0,0-6,0v45.072a2.874,2.874,0,0,0,3,3Z" transform="translate(-368.076 -149.163)"/>
  <path id="Pfad_402" data-name="Pfad 402" d="M184.256,27.334H161.513l-6.1-9.717A7.628,7.628,0,0,0,148.9,14H130.086a7.629,7.629,0,0,0-6.513,3.619l-6,9.718H94.835a3,3,0,0,0,0,6H100V102.49A9.486,9.486,0,0,0,109.514,112h60.165a9.486,9.486,0,0,0,9.511-9.511V33.434h5.066a3,3,0,0,0,3-3,3.09,3.09,0,0,0-3-3.1Zm-55.513-6.512a1.615,1.615,0,0,1,1.344-.724h18.918a1.766,1.766,0,0,1,1.344.724l4.032,6.513H124.712ZM172.988,102.7a3.442,3.442,0,0,1-3.411,3.411H109.412A3.442,3.442,0,0,1,106,102.7V33.434h67.092V102.7Z" transform="translate(-91.837 -13.999)"/>
</svg>
