<svg id="edit" xmlns="http://www.w3.org/2000/svg" width="101.281" height="100" viewBox="0 0 101.281 100">
  <path id="Pfad_441" data-name="Pfad 441" d="M170.911,59.157a2.374,2.374,0,0,1,4.748,0V90.58a18.625,18.625,0,0,1-18.577,18.577H94.24A18.625,18.625,0,0,1,75.663,90.58V27.734A18.625,18.625,0,0,1,94.24,9.157h31.419a2.373,2.373,0,1,1,0,4.745H94.24A13.876,13.876,0,0,0,80.411,27.728V90.574A13.876,13.876,0,0,0,94.24,104.4h62.842a13.871,13.871,0,0,0,13.826-13.826V59.151Zm-62.024,15.69V58.236a2.374,2.374,0,0,1,.716-1.7l43.252-43.254a14.118,14.118,0,0,1,19.966,19.966L129.545,76.525a2.36,2.36,0,0,1-1.678.694h-16.61a2.373,2.373,0,0,1-2.372-2.373Zm4.748-15.628V72.474h13.255l42.578-42.582a9.373,9.373,0,0,0-13.255-13.255L113.632,59.219Z" transform="translate(-75.663 -9.157)"/>
</svg>
