<svg xmlns="http://www.w3.org/2000/svg" width="101.572" height="106.781" viewBox="0 0 101.572 106.781">
  <g id="floor_icon" transform="translate(-131.594 -50.35)">
    <path id="Pfad_146" data-name="Pfad 146" d="M182.1,50.35c-.042.012-.082.025-.122.041a1.292,1.292,0,0,0-.366.2L132.326,75.218a1.332,1.332,0,0,0-.732,1.18v53.642c0,.51.688.85.976,1.017l49.2,25.926a1.329,1.329,0,0,0,1.221,0c16.51-8.652,32.962-17.415,49.484-26.046a1.246,1.246,0,0,0,.692-1.139V101.146a1.3,1.3,0,1,0-2.605,0V127.6L183.68,102.937v-49.2L230.56,77.174V93.33a1.3,1.3,0,1,0,2.605,0V76.4a1.331,1.331,0,0,0-.732-1.18L183.112,50.557a1.361,1.361,0,0,0-.163-.082q-.04-.022-.082-.041h-.041a1.36,1.36,0,0,0-.2-.082h-.368a1.215,1.215,0,0,0-.163,0Zm-1.017,3.378v49.2c-4.484,2.266-9.083,4.82-13.022,6.837V75.094a1.364,1.364,0,0,0-1.587-1.3c-5.693,2.647-11.453,5.3-17.173,7.936a1.332,1.332,0,0,0-.773,1.18v37.157L134.2,127.594V77.169Zm11.435,17.459a1.345,1.345,0,0,0-1.017,1.3V89.421a1.33,1.33,0,0,0,.692,1.14l24.742,13.024a1.372,1.372,0,0,0,1.913-1.14V85.514a1.331,1.331,0,0,0-.692-1.18L193.409,71.31a1.315,1.315,0,0,0-.9-.122Zm1.587,3.459,9.115,4.8V93.408l-9.115-4.8Zm-28.649,2.483v34.025l-14.325,7.529V83.724Zm40.368,3.662,10.418,5.495v13.959L205.82,94.751ZM156.173,93.286a1.349,1.349,0,0,0-1.139,1.343v5.209a1.3,1.3,0,1,0,2.605,0V94.629a1.361,1.361,0,0,0-1.465-1.343Zm26.207,11.925,9.238,4.884-9.888,5.331-9.278-5.006Zm12.046,6.349,8.628,4.517-9.929,5.535-8.667-4.681Zm-24.742.325,9.278,5.047-8.628,4.681-9.278-5.169Zm36.115,5.669,9.91,5.2-10.052,5.616-9.807-5.291c3.314-1.846,6.639-3.67,9.948-5.523Zm-47.549.354h.041l9.319,5.169-9.807,5.291-9.441-5.25Zm23.482.529,8.667,4.681-8.667,4.8-8.667-4.8Zm36.787,5.779,10.539,5.576-10.532,5.529c-3.336-1.793-6.741-3.635-10.1-5.447,3.343-1.882,6.8-3.763,10.092-5.657Zm-72.963.366h.041l9.441,5.291-9.441,5.088-9.888-5.169Zm24.742,0,8.708,4.843-9.645,5.372-8.831-4.924Zm22.83,0,9.807,5.291L194.1,134.8l-9.685-5.372Zm-11.394,6.349,9.685,5.372-9.685,5.372-9.685-5.372Zm-23.968.448,8.871,4.924c-3,1.676-6.057,3.328-9.034,5.025l-9.239-4.861Zm47.937,0,10.052,5.413-9.645,5.047a1.317,1.317,0,0,0-.61-.732l-8.667-4.8Zm-36.38,6.389,9.726,5.413-8.708,4.8-9.97-5.209Zm24.823,0,9.6,5.331L193.7,148.391a1.31,1.31,0,0,0-.244-.2l-9.035-5.006Zm-12.412,6.919,9.238,5.128-8.587,4.517-9.278-4.884Z"/>
  </g>
</svg>
