<svg xmlns="http://www.w3.org/2000/svg" width="100" height="65.002" viewBox="0 0 100 65.002">
  <g id="floor_icon" transform="translate(-125.994 -134.402)">
    <path id="Pfad_220" data-name="Pfad 220" d="M225.969,135.525a1.152,1.152,0,0,0-.153-.477,1.069,1.069,0,0,0-.054-.121c-.02-.029-.051-.043-.074-.069a1.207,1.207,0,0,0-.186-.174,1.175,1.175,0,0,0-.194-.13,1.226,1.226,0,0,0-.215-.08,1.242,1.242,0,0,0-.252-.051.869.869,0,0,0-.1-.021h-97.5a.925.925,0,0,0-.1.02,1.55,1.55,0,0,0-.466.131,1.279,1.279,0,0,0-.2.133,1.178,1.178,0,0,0-.183.172c-.023.026-.054.041-.074.07a1.069,1.069,0,0,0-.054.121,1.17,1.17,0,0,0-.1.228,40.886,40.886,0,0,0-.076.376v62.5a1.078,1.078,0,0,0,.026.128,1.151,1.151,0,0,0,.153.477,1.071,1.071,0,0,0,.054.121c.017.024.046.033.065.056a1.219,1.219,0,0,0,.3.26,1.282,1.282,0,0,0,.124.084,1.241,1.241,0,0,0,.527.125h97.5a1.234,1.234,0,0,0,.526-.125,1.141,1.141,0,0,0,.124-.084,1.235,1.235,0,0,0,.3-.26c.019-.023.047-.031.065-.056a1.073,1.073,0,0,0,.054-.121,1.17,1.17,0,0,0,.1-.228,1.222,1.222,0,0,0,.051-.249,1.079,1.079,0,0,0,.026-.128v-62.5a1.079,1.079,0,0,0-.026-.128Zm-5.124,1.379L208.5,145.724v-.071a1.25,1.25,0,0,0-1.25-1.25h-62.5a1.25,1.25,0,0,0-1.25,1.25v.071L131.145,136.9Zm-52.351,45h-1.25v-2.5h16.251v2.5Zm12.5,2.5v2.5h-11.25v-2.5Zm-11.25-7.5v-16.25a1.252,1.252,0,0,1,1.25-1.25h8.75a1.252,1.252,0,0,1,1.25,1.25V176.9Zm13.75,7.5h1.25a1.25,1.25,0,0,0,1.25-1.25v-5a1.25,1.25,0,0,0-1.25-1.25h-1.25V160.654a3.754,3.754,0,0,0-3.75-3.75h-8.75a3.754,3.754,0,0,0-3.75,3.75V176.9h-1.25a1.25,1.25,0,0,0-1.25,1.25v5a1.25,1.25,0,0,0,1.25,1.25h1.25v2.5h-21.25v-40h60v40h-22.5Zm-55-46.321,15,10.714v36.212l-15,10.714Zm2.651,58.821,12.349-8.821v.071a1.25,1.25,0,0,0,1.25,1.25h22.5v3.75a1.25,1.25,0,1,0,2.5,0V189.4H181v3.75a1.25,1.25,0,1,0,2.5,0V189.4h23.75a1.25,1.25,0,0,0,1.25-1.25v-.071l12.348,8.821Zm92.351-1.179-15-10.714V148.8l15-10.714Z"/>
    <path id="Pfad_221" data-name="Pfad 221" d="M157.543,237.767l-7.5-2.5a1.25,1.25,0,0,0-1.645,1.186v17.5a1.252,1.252,0,0,0,1.25,1.25,1.262,1.262,0,0,0,.4-.064l7.5-2.5a1.252,1.252,0,0,0,.854-1.187v-12.5a1.25,1.25,0,0,0-.854-1.186ZM155.9,250.552l-5,1.667V238.186l5,1.667Z" transform="translate(-17.402 -78.3)"/>
    <path id="Pfad_222" data-name="Pfad 222" d="M507.656,252.632l7.5,2.5a1.25,1.25,0,0,0,1.645-1.186v-17.5a1.25,1.25,0,0,0-1.645-1.186l-7.5,2.5a1.25,1.25,0,0,0-.854,1.186v12.5a1.25,1.25,0,0,0,.854,1.186Zm1.645-12.785,5-1.667v14.033l-5-1.667Z" transform="translate(-295.806 -78.295)"/>
  </g>
</svg>
