<svg xmlns="http://www.w3.org/2000/svg" width="98.814" height="73.037" viewBox="0 0 98.814 73.037">
  <defs>
    <style>
      .cls-1 {
        fill-rule: evenodd;
      }
    </style>
  </defs>
  <g id="message_icon" transform="translate(-81.666 -81.668)">
    <path id="Pfad_257" data-name="Pfad 257" class="cls-1" d="M180.48,92.409A10.736,10.736,0,0,0,169.74,81.668H92.406A10.736,10.736,0,0,0,81.666,92.409v51.556A10.736,10.736,0,0,0,92.406,154.7H169.74a10.736,10.736,0,0,0,10.741-10.741Zm-36.518,28.816-5.293,5.3a10.746,10.746,0,0,1-15.192,0l-5.293-5.3L89.628,149.781a6.449,6.449,0,0,0,2.778.629H169.74a6.45,6.45,0,0,0,2.778-.629Zm31.593-31.593a6.449,6.449,0,0,1,.629,2.778v51.556a6.449,6.449,0,0,1-.629,2.778L147,118.187Zm-88.963,0,28.556,28.556L86.592,146.744a6.45,6.45,0,0,1-.629-2.778V92.411a6.45,6.45,0,0,1,.629-2.778Zm85.927-3.037a6.45,6.45,0,0,0-2.778-.629H92.408a6.45,6.45,0,0,0-2.778.629l36.888,36.886a6.441,6.441,0,0,0,9.113,0Z"/>
  </g>
</svg>
