<svg xmlns="http://www.w3.org/2000/svg" width="100.955" height="100.953" viewBox="0 0 100.955 100.953">
  <g id="open_toggle_icon" transform="translate(9.711 106.709)">
    <path id="Pfad_302" data-name="Pfad 302" d="M285.244,116.955V137.7h0a2.665,2.665,0,0,1-5.331,0V119.621H189.621v90.293h90.293V191.831a2.665,2.665,0,0,1,5.331,0V212.58h0a2.665,2.665,0,0,1-2.665,2.665H186.955a2.666,2.666,0,0,1-2.665-2.665V116.956a2.666,2.666,0,0,1,2.665-2.665h95.623a2.666,2.666,0,0,1,2.665,2.665Zm-24.572,69.722a2.667,2.667,0,0,0,3.77,0l20.022-20.023h0a2.675,2.675,0,0,0,0-3.771l-20.021-20.024a2.666,2.666,0,1,0-3.77,3.77L276.145,162.1H225.561a2.665,2.665,0,0,0,0,5.331h50.584l-15.473,15.475a2.666,2.666,0,0,0,0,3.77Z" transform="translate(-194 -221)"/>
  </g>
</svg>
