<svg xmlns="http://www.w3.org/2000/svg" width="99.111" height="106.781" viewBox="0 0 99.111 106.781">
  <g id="service_icon" transform="translate(-87.504 0.002)">
    <path id="Pfad_181" data-name="Pfad 181" d="M322.955,11.151a41.662,41.662,0,0,0-6.968-.594,39.918,39.918,0,0,0-5.476.365,6.753,6.753,0,0,1-1.184-3.817,7.5,7.5,0,0,1,14.976,0,6.809,6.809,0,0,1-1.347,4.046ZM320.443,7.1a3.643,3.643,0,0,0-7.276,0,3.643,3.643,0,0,0,7.276,0Z" transform="translate(-179.526)" fill-rule="evenodd"/>
    <path id="Pfad_182" data-name="Pfad 182" d="M136.861,96.249a2.184,2.184,0,0,1-.237-.025,1.838,1.838,0,0,1-1.56-2.12c3.811-20.3,20.462-34.48,40.489-34.48,19.7,0,36.294,13.893,40.346,33.777a1.834,1.834,0,0,1-1.521,2.138,1.917,1.917,0,0,1-2.252-1.443c-3.7-18.149-18.739-30.818-36.572-30.818-18.123,0-33.212,12.933-36.7,31.466a1.91,1.91,0,0,1-1.9,1.507l-.1,0Z" transform="translate(-38.468 -48.256)"/>
    <path id="Pfad_183" data-name="Pfad 183" d="M94.732,265.653h-5.3a1.829,1.829,0,1,1,0-3.653H184.69a1.829,1.829,0,1,1-.01,3.653h-5.312l-2.3,4.494a6.622,6.622,0,0,1-5.88,3.489H102.913a6.623,6.623,0,0,1-5.881-3.489Zm4.283,0,1.482,2.9a2.721,2.721,0,0,0,2.416,1.435H171.2a2.705,2.705,0,0,0,2.416-1.435l1.481-2.9Z" transform="translate(0 -212.043)" fill-rule="evenodd"/>
    <path id="Pfad_184" data-name="Pfad 184" d="M172.805,338.548a7.345,7.345,0,0,0-9.72-2.475,1.284,1.284,0,0,0-.114.069c-.023.016-.046.032-.069.05l-13.012,9.179a2.36,2.36,0,0,1-.2.121c-.042.023-.083.046-.124.071a6.488,6.488,0,0,0-.279-5.215,7.212,7.212,0,0,0-6.41-3.828H120.391a14.024,14.024,0,0,0-9.576,3.764l-5.255,4.987a1.767,1.767,0,0,0,0,2.585,2,2,0,0,0,2.724,0l5.255-4.987a10.043,10.043,0,0,1,6.853-2.694h22.483a3.292,3.292,0,0,1,2.945,1.753,3,3,0,0,1,0,2.686,3.293,3.293,0,0,1-2.945,1.753H126.022a1.884,1.884,0,0,0-1.925,1.827,1.743,1.743,0,0,0,.568,1.288,1.974,1.974,0,0,0,1.357.539H146.7a9.575,9.575,0,0,0,5.486-1.726l12.915-9.116a3.369,3.369,0,0,1,4.38,1.178,3.028,3.028,0,0,1-1.194,4.238l-.057.034,0,0a.826.826,0,0,0-.112.073l-15.37,10.659a6.567,6.567,0,0,1-3.031.849H128.39a7.974,7.974,0,0,0-5.419,2.147l-5.063,4.8L99.68,345.882a2.062,2.062,0,0,0-2.724,0l-7.054,6.7a1.765,1.765,0,0,0,0,2.585,2,2,0,0,0,2.723,0l5.7-5.407,20.816,19.756-5.7,5.407a1.765,1.765,0,0,0,0,2.585,1.979,1.979,0,0,0,2.714,0l7.054-6.7a1.765,1.765,0,0,0,0-2.585l-2.589-2.457,5.063-4.8a3.955,3.955,0,0,1,2.695-1.078h21.327a10.663,10.663,0,0,0,5.092-1.416,1.245,1.245,0,0,0,.145-.091l15.37-10.659a6.577,6.577,0,0,0,2.492-9.171Z" transform="translate(-1.485 -271.264)"/>
  </g>
</svg>
