<svg xmlns="http://www.w3.org/2000/svg" width="100" height="100" viewBox="0 0 100 100">
  <g id="service_icon" transform="translate(-103.6 -33.6)">
    <path id="Pfad_265" data-name="Pfad 265" d="M153.6,33.6a32.932,32.932,0,0,0-32.955,32.955v1.137h-1.137A15.924,15.924,0,0,0,103.6,83.6V94.963a15.924,15.924,0,0,0,15.909,15.909h3.409a2.273,2.273,0,1,0,0-4.545h-3.409a11.289,11.289,0,0,1-11.364-11.364V83.6a11.289,11.289,0,0,1,11.364-11.364h1.137V99.509a2.273,2.273,0,1,0,4.545,0V66.554a28.409,28.409,0,1,1,56.818,0v46.591a8.93,8.93,0,0,1-1.882,5.788,6.032,6.032,0,0,1-4.937,2.166H163.543a10.227,10.227,0,1,0,0,4.545h11.647a10.911,10.911,0,0,0,8.417-3.8,13.328,13.328,0,0,0,2.947-8.7v-2.273h1.137A15.924,15.924,0,0,0,203.6,94.963V83.6a15.924,15.924,0,0,0-15.909-15.909h-1.137V66.554A32.932,32.932,0,0,0,153.6,33.6Zm32.955,38.636h1.137A11.289,11.289,0,0,1,199.055,83.6V94.964a11.289,11.289,0,0,1-11.364,11.364h-1.137Zm-33.523,45.455a5.7,5.7,0,1,1-5.113,5.682,5.662,5.662,0,0,1,5.113-5.682Z" transform="translate(0)"/>
  </g>
</svg>
