<svg xmlns="http://www.w3.org/2000/svg" width="100.035" height="100" viewBox="0 0 100.035 100">
  <defs>
    <style>
      .cls-1 {
        fill-rule: evenodd;
      }
    </style>
  </defs>
  <g id="solution_icon" transform="translate(-101.117 -31.109)">
    <path id="Pfad_301" data-name="Pfad 301" class="cls-1" d="M194.049,31.109a7.115,7.115,0,0,1,7.1,7.114v85.785a6.985,6.985,0,0,1-1.036,3.676,7.113,7.113,0,0,1-6.078,3.426H108.231a7.121,7.121,0,0,1-7.114-7.1l.035-85.785a7.124,7.124,0,0,1,7.114-7.114ZM134.432,83.2h14.614V95.8a4.574,4.574,0,0,1-2.3,1.161c-.991.091-1.662-.433-2.88-1.422a11.982,11.982,0,0,0-8.251-3.187,12.708,12.708,0,0,0,0,25.415,11.424,11.424,0,0,0,8.832-3.756c1.138-1.082,1.627-1.457,2.413-1.492a2.216,2.216,0,0,1,2.185,1.2v13.2H108.23a2.927,2.927,0,0,1-2.913-2.914V83.2h15.5a2.067,2.067,0,0,0,1.627-.751,6.54,6.54,0,0,0,.728-1.126,7.016,7.016,0,0,0,.717-2.345,9.066,9.066,0,0,0,.046-.956,6.309,6.309,0,0,0-1.434-3.858c-.4-.5-.82-.944-1.218-1.366a7.281,7.281,0,0,1-2.6-5.907,8.508,8.508,0,1,1,17.016,0,7.849,7.849,0,0,1-2.243,5.623c-1.137,1.422-2.412,3.027-2.356,5.622a7.957,7.957,0,0,0,1.628,4.223,2.1,2.1,0,0,0,1.7.842Zm18.814-16.776V79.016h14.625a2.119,2.119,0,0,1,1.7.842l.341.49.284.478a7.117,7.117,0,0,1,1,3.255,6.816,6.816,0,0,1-.671,3.142,14.457,14.457,0,0,1-1.685,2.492l-.068.068a11.087,11.087,0,0,0-1.616,2.459,7.638,7.638,0,0,0-.569,3.1,8.508,8.508,0,0,0,17.016,0,8.843,8.843,0,0,0-.33-2.527,6.5,6.5,0,0,0-.546-1.3,10.692,10.692,0,0,0-1.707-2.094,9.942,9.942,0,0,1-2.231-3.107,6.244,6.244,0,0,1-.421-2.105,6.944,6.944,0,0,1,.648-3.1,6.678,6.678,0,0,1,.831-1.331,2.067,2.067,0,0,1,1.638-.763h15.48V38.224a2.867,2.867,0,0,0-.5-1.627,2.915,2.915,0,0,0-2.413-1.286h-40.8V48.5A2.256,2.256,0,0,0,155.43,49.7c.786-.023,1.287-.41,2.425-1.48a11.38,11.38,0,0,1,8.82-3.767,12.708,12.708,0,1,1,0,25.415,11.952,11.952,0,0,1-8.24-3.175c-1.229-.99-1.89-1.491-2.879-1.434a4.544,4.544,0,0,0-2.31,1.173Zm-4.189,12.588H135.593l-.228-.592a.985.985,0,0,1-.035-.432,2.547,2.547,0,0,1,.217-1.138,4.733,4.733,0,0,1,.592-.956l.615-.786a11.987,11.987,0,0,0,3.175-8.251,12.65,12.65,0,0,0-4.268-9.492,12.911,12.911,0,0,0-3.779-2.334,12.719,12.719,0,0,0-17.357,11.826,11.425,11.425,0,0,0,3.756,8.832c1.081,1.138,1.457,1.627,1.491,2.412a2.694,2.694,0,0,1-.114.911H105.374V38.224a2.919,2.919,0,0,1,2.914-2.913h40.791V48.89l.046.375.046.228a6.358,6.358,0,0,0,6.385,4.4c2.47-.057,3.938-1.445,5.144-2.583l.068-.068a8.9,8.9,0,0,1,2.812-2.06,7.994,7.994,0,0,1,3.1-.535,8.508,8.508,0,1,1,0,17.016,7.851,7.851,0,0,1-5.622-2.242c-1.422-1.138-3.051-2.413-5.623-2.356a7.108,7.108,0,0,0-3.38,1.046,9.128,9.128,0,0,0-2.561,2.185,1.988,1.988,0,0,0-.433,1.275Zm4.189,47.907h40.791a2.927,2.927,0,0,0,2.914-2.914V83.218H182.678a2.358,2.358,0,0,0-.126.9,1.938,1.938,0,0,0,.148.683,6.186,6.186,0,0,0,1.343,1.73l.478.512a16.128,16.128,0,0,1,1.354,1.639,11.188,11.188,0,0,1,1.923,6.681,12.7,12.7,0,1,1-25.4,0,11.95,11.95,0,0,1,3.175-8.24c.99-1.229,1.457-1.867,1.422-2.891l-.068-.376a4.072,4.072,0,0,0-.25-.614H153.211V96.67a2.266,2.266,0,0,1-.079.626,2.07,2.07,0,0,1-.353.66,8.8,8.8,0,0,1-5.941,3.266c-2.573.057-4.2-1.229-5.623-2.368a7.851,7.851,0,0,0-5.622-2.242,8.508,8.508,0,1,0,0,17.016,9.151,9.151,0,0,0,1.98-.194,6.493,6.493,0,0,0,1.378-.455,9.491,9.491,0,0,0,2.55-1.946c1.229-1.161,2.708-2.583,5.224-2.652a6.355,6.355,0,0,1,2.242.3,6.29,6.29,0,0,1,4.132,4.109,2.281,2.281,0,0,1,.091.615Z"/>
  </g>
</svg>
