<svg xmlns="http://www.w3.org/2000/svg" width="106.781" height="106.781" viewBox="0 0 106.781 106.781">
  <g id="solution_icon" transform="translate(-70)">
    <path id="Pfad_217" data-name="Pfad 217" d="M161.753,25.024a15.014,15.014,0,0,0-11.177,5h-.5V3.337A3.336,3.336,0,0,0,146.739,0H116.71a3.336,3.336,0,0,0-3.337,3.337V8.775a3.337,3.337,0,0,0,1.418,2.736,8.341,8.341,0,1,1-9.509,0A3.337,3.337,0,0,0,106.7,8.775V3.337A3.336,3.336,0,0,0,103.364,0H73.336A3.336,3.336,0,0,0,70,3.337v73.4a3.336,3.336,0,0,0,3.337,3.337h26.692v.5a15.014,15.014,0,1,0,20.019,0v-.5h26.692a3.336,3.336,0,0,0,3.337-3.337V50.048h.5a15.014,15.014,0,1,0,11.177-25.024Zm0,23.356a8.342,8.342,0,0,1-6.84-3.587,3.337,3.337,0,0,0-2.736-1.418h-5.438a3.336,3.336,0,0,0-3.336,3.337V73.4H116.71a3.336,3.336,0,0,0-3.337,3.337v5.438a3.337,3.337,0,0,0,1.418,2.736,8.341,8.341,0,1,1-9.509,0,3.337,3.337,0,0,0,1.418-2.736V76.74a3.336,3.336,0,0,0-3.337-3.337H76.672V6.673h23.356v.5a15.014,15.014,0,1,0,20.019,0v-.5H143.4V33.365a3.336,3.336,0,0,0,3.336,3.337h5.438a3.337,3.337,0,0,0,2.736-1.418,8.341,8.341,0,1,1,6.84,13.1Z"/>
  </g>
</svg>
