<svg xmlns="http://www.w3.org/2000/svg" width="67.902" height="100.953" viewBox="0 0 67.902 100.953">
  <g id="user_icon" transform="translate(-167.553 -8.75)">
    <path id="Pfad_320" data-name="Pfad 320" d="M252.216,53.459A22.355,22.355,0,1,0,229.86,31.106,22.381,22.381,0,0,0,252.216,53.459Zm0-40.185A17.831,17.831,0,1,1,234.38,31.106a17.856,17.856,0,0,1,17.836-17.832Z" transform="translate(-50.713)"/>
    <path id="Pfad_321" data-name="Pfad 321" d="M220.555,272.25h-38.1a14.919,14.919,0,0,0-14.9,14.9v34.761a2.258,2.258,0,0,0,2.257,2.257H233.2a2.258,2.258,0,0,0,2.257-2.257V287.153a14.913,14.913,0,0,0-14.9-14.9Zm10.379,47.4H172.074v-32.5a10.4,10.4,0,0,1,10.382-10.385h38.1a10.4,10.4,0,0,1,10.382,10.385v32.5Z" transform="translate(0 -214.466)"/>
  </g>
</svg>
